<svg width="22" height="18" viewBox="0 0 22 18" fill="none" xmlns="http://www.w3.org/2000/svg">
<path d="M6.335 13.665C4.2823 12.4549 2.47308 10.8729 1 9C1 9 5.48 3 11 3C12.6433 3.04059 14.249 3.5001 15.665 4.335" stroke="#1D18FF" stroke-width="1.5" stroke-linecap="round" stroke-linejoin="round"/>
<path d="M18.225 6.13C19.2455 6.98941 20.1754 7.95109 21 9C20.356 9.81194 19.6513 10.5738 18.892 11.279C17.3 12.8 14.34 15 11 15C10.3941 14.9986 9.79031 14.9292 9.19995 14.793" stroke="#1D18FF" stroke-width="1.5" stroke-linecap="round" stroke-linejoin="round"/>
<path d="M12.1709 11.764C12.8963 11.4572 13.4713 10.8765 13.7709 10.148C13.8079 10.059 13.8399 9.97003 13.8709 9.87903" stroke="#1D18FF" stroke-width="1.5" stroke-linecap="round" stroke-linejoin="round"/>
<path d="M13.1199 6.87899C12.8438 6.58982 12.5126 6.35877 12.1459 6.19941C11.7793 6.04005 11.3844 5.95559 10.9846 5.951C10.5848 5.94641 10.1882 6.02179 9.8179 6.17269C9.44766 6.3236 9.11131 6.54699 8.82862 6.82973C8.54594 7.11248 8.32263 7.44889 8.17181 7.81917C8.021 8.18945 7.94572 8.58615 7.9504 8.98594C7.95508 9.38573 8.03963 9.78056 8.19908 10.1472C8.35853 10.5139 8.58966 10.8449 8.87889 11.121" stroke="#1D18FF" stroke-width="1.5" stroke-linecap="round" stroke-linejoin="round"/>
<path d="M8.88 11.12L3 17" stroke="#1D18FF" stroke-width="1.5" stroke-linecap="round" stroke-linejoin="round"/>
<path d="M15.8899 4.10999L8.87988 11.12" stroke="#1D18FF" stroke-width="1.5" stroke-linecap="round" stroke-linejoin="round"/>
<path d="M18.9999 1L15.8899 4.11" stroke="#1D18FF" stroke-width="1.5" stroke-linecap="round" stroke-linejoin="round"/>
</svg>
