<svg width="19" height="17" viewBox="0 0 19 17" fill="none" xmlns="http://www.w3.org/2000/svg">
<path id="Cora&#195;&#167;&#195;&#163;o/Like" d="M8.98258 2.78607L9.38763 3.41173L9.79321 2.78642C11.2342 0.564686 13.241 0.129139 14.8637 0.75248C16.517 1.38759 17.87 3.15846 17.87 5.56439C17.87 6.39492 17.428 7.41282 16.6631 8.53071C15.9081 9.63416 14.8845 10.7694 13.8227 11.8215C12.7629 12.8715 11.6768 13.8271 10.8038 14.5725C10.4902 14.8402 10.2058 15.0795 9.95899 15.287C9.86177 15.3688 9.7704 15.4456 9.6854 15.5173C9.57641 15.6093 9.47512 15.6951 9.38489 15.7729C9.28957 15.6931 9.18232 15.6054 9.06722 15.5117C8.94433 15.4118 8.80981 15.3031 8.66418 15.1855C8.43614 15.0012 8.18086 14.795 7.9003 14.5658C6.98739 13.8199 5.84826 12.8638 4.73538 11.8133C3.62026 10.7607 2.54414 9.62507 1.75013 8.52139C0.944698 7.40183 0.482972 6.38742 0.482972 5.56439C0.482972 3.15734 1.92499 1.37912 3.69368 0.741094C5.43984 0.111203 7.55152 0.575582 8.98258 2.78607Z" stroke="black" stroke-width="0.965944"/>
</svg>
