<svg width="22" height="22" viewBox="0 0 22 22" fill="none" xmlns="http://www.w3.org/2000/svg">
<path d="M21.8602 10.5721C21.6636 10.3032 16.9808 3.98901 10.9999 3.98901C5.01902 3.98901 0.33593 10.3032 0.139606 10.5718C-0.0465352 10.8269 -0.0465352 11.1728 0.139606 11.4279C0.33593 11.6968 5.01902 18.011 10.9999 18.011C16.9808 18.011 21.6636 11.6967 21.8602 11.4281C22.0466 11.1731 22.0466 10.8269 21.8602 10.5721ZM10.9999 16.5604C6.59434 16.5604 2.77867 12.3696 1.64914 10.9995C2.7772 9.62824 6.58489 5.43956 10.9999 5.43956C15.4052 5.43956 19.2206 9.6297 20.3506 11.0005C19.2226 12.3717 15.4149 16.5604 10.9999 16.5604Z" fill="#3A36FF"/>
<path d="M11.0001 6.64838C8.60064 6.64838 6.64844 8.60058 6.64844 11C6.64844 13.3995 8.60064 15.3517 11.0001 15.3517C13.3996 15.3517 15.3518 13.3995 15.3518 11C15.3518 8.60058 13.3996 6.64838 11.0001 6.64838ZM11.0001 13.9011C9.40038 13.9011 8.09902 12.5997 8.09902 11C8.09902 9.40036 9.40042 8.09896 11.0001 8.09896C12.5998 8.09896 13.9012 9.40036 13.9012 11C13.9012 12.5997 12.5998 13.9011 11.0001 13.9011Z" fill="#3A36FF"/>
</svg>
