<svg width="55" height="55" viewBox="0 0 55 55" fill="none" xmlns="http://www.w3.org/2000/svg">
<g id="Bot&#195;&#163;o Sacola">
<rect id="Rectangle 32" width="55" height="55" rx="5.29232" fill="#158A8A"/>
<g id="Sacola">
<path id="Vector" d="M17.6632 24.0977C17.7147 23.4566 18.0057 22.8584 18.4783 22.4223C18.951 21.9862 19.5705 21.744 20.2137 21.7442H35.6367C36.2798 21.744 36.8994 21.9862 37.372 22.4223C37.8447 22.8584 38.1357 23.4566 38.1872 24.0977L39.2143 36.8884C39.2425 37.2403 39.1976 37.5944 39.0823 37.9282C38.967 38.2619 38.7839 38.5682 38.5444 38.8277C38.3049 39.0873 38.0144 39.2944 37.6909 39.4361C37.3675 39.5778 37.0182 39.651 36.6651 39.6511H19.1853C18.8322 39.651 18.4829 39.5778 18.1595 39.4361C17.836 39.2944 17.5454 39.0873 17.306 38.8277C17.0665 38.5682 16.8834 38.2619 16.7681 37.9282C16.6528 37.5944 16.6079 37.2403 16.6361 36.8884L17.6632 24.0977V24.0977Z" stroke="white" stroke-width="2.55814" stroke-linecap="round" stroke-linejoin="round"/>
<path id="Vector_2" d="M33.0414 25.5814V19.186C33.0414 17.8291 32.5024 16.5278 31.5429 15.5683C30.5834 14.6088 29.2821 14.0698 27.9252 14.0698C26.5682 14.0698 25.2669 14.6088 24.3074 15.5683C23.3479 16.5278 22.8089 17.8291 22.8089 19.186V25.5814" stroke="white" stroke-width="2.55814" stroke-linecap="round" stroke-linejoin="round"/>
</g>
</g>
</svg>
